<svg width="80" height="73" viewBox="0 0 80 73" fill="none" xmlns="http://www.w3.org/2000/svg">
<path d="M72 64.8889V16.2222H8V64.8889H72ZM72 0C74.1217 0 76.1566 0.854561 77.6569 2.37569C79.1571 3.89682 80 5.95991 80 8.11111V64.8889C80 67.0401 79.1571 69.1032 77.6569 70.6243C76.1566 72.1454 74.1217 73 72 73H8C5.87827 73 3.84344 72.1454 2.34315 70.6243C0.842854 69.1032 0 67.0401 0 64.8889V8.11111C0 5.95991 0.842854 3.89682 2.34315 2.37569C3.84344 0.854561 5.87827 0 8 0H72ZM44 56.7778V48.6667H64V56.7778H44ZM30.32 40.5556L14.28 24.3333H25.6L38.8 37.7167C40.36 39.2983 40.36 41.8939 38.8 43.4756L25.68 56.7778H14.36L30.32 40.5556Z" fill="#2E8DF7"/>
</svg>
