<svg width="128" height="116" viewBox="0 0 128 116" fill="none" xmlns="http://www.w3.org/2000/svg">
<path d="M115.2 103.111V25.7778H12.8V103.111H115.2ZM115.2 0C118.595 0 121.851 1.35793 124.251 3.77507C126.651 6.1922 128 9.47054 128 12.8889V103.111C128 106.529 126.651 109.808 124.251 112.225C121.851 114.642 118.595 116 115.2 116H12.8C9.40523 116 6.1495 114.642 3.74903 112.225C1.34857 109.808 0 106.529 0 103.111V12.8889C0 9.47054 1.34857 6.1922 3.74903 3.77507C6.1495 1.35793 9.40523 0 12.8 0H115.2ZM70.4 90.2222V77.3333H102.4V90.2222H70.4ZM48.512 64.4444L22.848 38.6667H40.96L62.08 59.9333C64.576 62.4467 64.576 66.5711 62.08 69.0845L41.088 90.2222H22.976L48.512 64.4444Z" fill="#2E8DF7"/>
</svg>
