<svg width="1073" height="219" viewBox="0 0 1073 219" fill="none" xmlns="http://www.w3.org/2000/svg">
<path d="M302.917 127.875H284.292L264.542 56.875H264.042C264.25 59.4167 264.479 63.0208 264.729 67.6875C265.021 72.3542 265.167 77.0208 265.167 81.6875V127.875H247.417V38.625H274.292L293.917 106.688H294.354L313.792 38.625H340.604V127.875H322.229V81.125C322.229 78.2917 322.271 75.3542 322.354 72.3125C322.437 69.2292 322.542 66.3333 322.667 63.625C322.792 60.9167 322.917 58.7083 323.042 57H322.542L302.917 127.875ZM391.979 58.25C400.271 58.25 406.646 60.2917 411.104 64.375C415.604 68.4167 417.854 74.4167 417.854 82.375V127.875H403.979L400.104 118.625H399.604C396.812 122.292 393.854 124.958 390.729 126.625C387.604 128.292 383.292 129.125 377.792 129.125C372 129.125 367.167 127.354 363.292 123.812C359.458 120.271 357.542 114.854 357.542 107.562C357.542 100.396 360.021 95 364.979 91.375C369.937 87.75 377.25 85.7708 386.917 85.4375L397.917 85.0625V83.0625C397.917 79.1458 397.083 76.3958 395.417 74.8125C393.75 73.2292 391.479 72.4375 388.604 72.4375C385.812 72.4375 382.812 72.9375 379.604 73.9375C376.396 74.8958 373.25 76.1042 370.167 77.5625L364.354 64.3125C367.937 62.3958 372.042 60.9167 376.667 59.875C381.292 58.7917 386.396 58.25 391.979 58.25ZM397.979 96.375L391.729 96.625C386.562 96.8333 382.958 97.7917 380.917 99.5C378.917 101.208 377.917 103.604 377.917 106.688C377.917 109.521 378.625 111.604 380.042 112.938C381.5 114.229 383.396 114.875 385.729 114.875C389.187 114.875 392.083 113.75 394.417 111.5C396.792 109.25 397.979 106.062 397.979 101.938V96.375ZM464.854 113.5C466.687 113.5 468.375 113.312 469.917 112.938C471.5 112.521 473.083 112.042 474.667 111.5V125.875C472.5 126.792 470.167 127.562 467.667 128.188C465.208 128.812 462.083 129.125 458.292 129.125C454.458 129.125 451.062 128.458 448.104 127.125C445.146 125.792 442.833 123.458 441.167 120.125C439.542 116.792 438.729 112.146 438.729 106.188V74.1875H431.292V65.9375L440.604 59.5L445.792 45.0625H458.854V59.4375H473.854V74.1875H458.854V105C458.854 110.667 460.854 113.5 464.854 113.5ZM520.354 129.125C513.437 129.125 507.354 127.896 502.104 125.438C496.896 122.938 492.833 119.104 489.917 113.938C487 108.729 485.542 102.083 485.542 94C485.542 85.6667 487.125 78.875 490.292 73.625C493.458 68.3333 497.771 64.4375 503.229 61.9375C508.729 59.4375 514.937 58.1875 521.854 58.1875C526.021 58.1875 529.958 58.625 533.667 59.5C537.417 60.3333 540.75 61.4583 543.667 62.875L537.792 77.6875C535.125 76.6042 532.437 75.7083 529.729 75C527.062 74.25 524.417 73.875 521.792 73.875C516.75 73.875 512.854 75.5417 510.104 78.875C507.354 82.1667 505.979 87.1667 505.979 93.875C505.979 100.542 507.354 105.438 510.104 108.562C512.896 111.688 516.729 113.25 521.604 113.25C525.312 113.25 528.854 112.771 532.229 111.812C535.604 110.854 538.75 109.542 541.667 107.875V123.812C538.917 125.479 535.833 126.792 532.417 127.75C529 128.667 524.979 129.125 520.354 129.125ZM577.292 32.875V51.125C577.292 55.0833 577.187 58.5 576.979 61.375C576.812 64.25 576.625 66.5208 576.417 68.1875H577.479C579.687 64.6458 582.479 62.1042 585.854 60.5625C589.229 59.0208 593.021 58.25 597.229 58.25C604.562 58.25 610.5 60.2292 615.042 64.1875C619.625 68.1042 621.917 74.4792 621.917 83.3125V127.875H601.917V88.375C601.917 78.625 598.417 73.75 591.417 73.75C586.042 73.75 582.333 75.6875 580.292 79.5625C578.292 83.3958 577.292 88.8958 577.292 96.0625V127.875H557.292V32.875H577.292Z" fill="#FFFDFD"/>
<path d="M765.917 81.8125C765.917 92.0208 763.792 100.542 759.542 107.375C755.333 114.208 749.333 119.333 741.542 122.75C733.75 126.167 724.458 127.875 713.667 127.875H683.542V38.625H716.229C731.812 38.625 743.979 42.3125 752.729 49.6875C761.521 57.0625 765.917 67.7708 765.917 81.8125ZM745.229 82.4375C745.229 72.5208 742.687 65.2083 737.604 60.5C732.521 55.75 725.146 53.375 715.479 53.375H703.479V112.938H713.229C734.562 112.938 745.229 102.771 745.229 82.4375ZM811.854 58.1875C821.271 58.1875 828.687 60.875 834.104 66.25C839.562 71.5833 842.292 79.2917 842.292 89.375V98.625H800.104C800.312 103.542 801.771 107.438 804.479 110.312C807.229 113.188 811.187 114.625 816.354 114.625C820.521 114.625 824.312 114.208 827.729 113.375C831.146 112.542 834.667 111.292 838.292 109.625V124.25C835.083 125.917 831.625 127.146 827.917 127.938C824.208 128.729 819.604 129.125 814.104 129.125C807.521 129.125 801.625 127.875 796.417 125.375C791.25 122.833 787.187 118.979 784.229 113.812C781.271 108.646 779.792 102.083 779.792 94.125C779.792 82.1667 782.75 73.1875 788.667 67.1875C794.583 61.1875 802.312 58.1875 811.854 58.1875ZM812.479 72C809.146 72 806.417 73.1458 804.292 75.4375C802.167 77.7292 800.917 81.1667 800.542 85.75H823.792C823.75 81.7917 822.771 78.5208 820.854 75.9375C818.979 73.3125 816.187 72 812.479 72ZM896.854 127.875H876.292L848.542 59.4375H869.542L883.104 99.875C883.646 101.042 884.25 102.708 884.917 104.875C885.583 107 886 108.854 886.167 110.438H886.542C886.75 108.854 887.187 107.042 887.854 105C888.521 102.958 889.125 101.271 889.667 99.9375L903.604 59.4375H924.479L896.854 127.875ZM990.917 107.5C990.917 114.042 988.146 119.292 982.604 123.25C977.104 127.167 968.896 129.125 957.979 129.125C952.312 129.125 947.354 128.812 943.104 128.188C938.854 127.562 934.812 126.542 930.979 125.125V109C935.021 110.792 939.479 112.167 944.354 113.125C949.229 114.083 953.646 114.562 957.604 114.562C962.604 114.562 966.229 114.083 968.479 113.125C970.771 112.125 971.917 110.729 971.917 108.938C971.917 107.688 971.375 106.604 970.292 105.688C969.25 104.729 967.396 103.729 964.729 102.688C962.062 101.604 958.271 100.271 953.354 98.6875C946.062 96.2708 940.479 93.5833 936.604 90.625C932.729 87.625 930.792 83.3125 930.792 77.6875C930.792 71.2708 933.687 66.4167 939.479 63.125C945.312 59.8333 952.937 58.1875 962.354 58.1875C967.437 58.1875 972.187 58.6667 976.604 59.625C981.062 60.5417 985.458 61.875 989.792 63.625L983.854 76.75C980.187 75.2917 976.417 74.125 972.542 73.25C968.667 72.375 965.125 71.9375 961.917 71.9375C958.042 71.9375 955.062 72.3542 952.979 73.1875C950.896 73.9792 949.854 75.1042 949.854 76.5625C949.854 77.7708 950.396 78.8125 951.479 79.6875C952.562 80.5208 954.458 81.4375 957.167 82.4375C959.875 83.3958 963.625 84.6667 968.417 86.25C975.75 88.6667 981.333 91.3542 985.167 94.3125C989 97.2708 990.917 101.667 990.917 107.5Z" fill="#2E8DF7"/>
<path d="M180.75 160.667V40.1667H20.0833V160.667H180.75ZM180.75 0C186.076 0 191.185 2.11592 194.951 5.88227C198.717 9.64863 200.833 14.7569 200.833 20.0833V160.667C200.833 165.993 198.717 171.101 194.951 174.868C191.185 178.634 186.076 180.75 180.75 180.75H20.0833C14.7569 180.75 9.64863 178.634 5.88227 174.868C2.11592 171.101 0 165.993 0 160.667V20.0833C0 14.7569 2.11592 9.64863 5.88227 5.88227C9.64863 2.11592 14.7569 0 20.0833 0H180.75ZM110.458 140.583V120.5H160.667V140.583H110.458ZM76.1158 100.417L35.8488 60.25H64.2667L97.4042 93.3875C101.32 97.3038 101.32 103.73 97.4042 107.647L64.4675 140.583H36.0496L76.1158 100.417Z" fill="#2E8DF7"/>
</svg>
