<svg width="1073" height="219" viewBox="0 0 1073 219" fill="none" xmlns="http://www.w3.org/2000/svg">
<path d="M303 128H284.375L264.625 57H264.125C264.333 59.5417 264.562 63.1458 264.812 67.8125C265.104 72.4792 265.25 77.1458 265.25 81.8125V128H247.5V38.75H274.375L294 106.812H294.438L313.875 38.75H340.688V128H322.312V81.25C322.312 78.4167 322.354 75.4792 322.438 72.4375C322.521 69.3542 322.625 66.4583 322.75 63.75C322.875 61.0417 323 58.8333 323.125 57.125H322.625L303 128ZM392.062 58.375C400.354 58.375 406.729 60.4167 411.188 64.5C415.688 68.5417 417.938 74.5417 417.938 82.5V128H404.062L400.188 118.75H399.688C396.896 122.417 393.938 125.083 390.812 126.75C387.688 128.417 383.375 129.25 377.875 129.25C372.083 129.25 367.25 127.479 363.375 123.938C359.542 120.396 357.625 114.979 357.625 107.688C357.625 100.521 360.104 95.125 365.062 91.5C370.021 87.875 377.333 85.8958 387 85.5625L398 85.1875V83.1875C398 79.2708 397.167 76.5208 395.5 74.9375C393.833 73.3542 391.562 72.5625 388.688 72.5625C385.896 72.5625 382.896 73.0625 379.688 74.0625C376.479 75.0208 373.333 76.2292 370.25 77.6875L364.438 64.4375C368.021 62.5208 372.125 61.0417 376.75 60C381.375 58.9167 386.479 58.375 392.062 58.375ZM398.062 96.5L391.812 96.75C386.646 96.9583 383.042 97.9167 381 99.625C379 101.333 378 103.729 378 106.812C378 109.646 378.708 111.729 380.125 113.062C381.583 114.354 383.479 115 385.812 115C389.271 115 392.167 113.875 394.5 111.625C396.875 109.375 398.062 106.188 398.062 102.062V96.5ZM464.938 113.625C466.771 113.625 468.458 113.438 470 113.062C471.583 112.646 473.167 112.167 474.75 111.625V126C472.583 126.917 470.25 127.688 467.75 128.312C465.292 128.938 462.167 129.25 458.375 129.25C454.542 129.25 451.146 128.583 448.188 127.25C445.229 125.917 442.917 123.583 441.25 120.25C439.625 116.917 438.812 112.271 438.812 106.312V74.3125H431.375V66.0625L440.688 59.625L445.875 45.1875H458.938V59.5625H473.938V74.3125H458.938V105.125C458.938 110.792 460.938 113.625 464.938 113.625ZM520.438 129.25C513.521 129.25 507.438 128.021 502.188 125.562C496.979 123.062 492.917 119.229 490 114.062C487.083 108.854 485.625 102.208 485.625 94.125C485.625 85.7917 487.208 79 490.375 73.75C493.542 68.4583 497.854 64.5625 503.312 62.0625C508.812 59.5625 515.021 58.3125 521.938 58.3125C526.104 58.3125 530.042 58.75 533.75 59.625C537.5 60.4583 540.833 61.5833 543.75 63L537.875 77.8125C535.208 76.7292 532.521 75.8333 529.812 75.125C527.146 74.375 524.5 74 521.875 74C516.833 74 512.938 75.6667 510.188 79C507.438 82.2917 506.062 87.2917 506.062 94C506.062 100.667 507.438 105.562 510.188 108.688C512.979 111.812 516.812 113.375 521.688 113.375C525.396 113.375 528.938 112.896 532.312 111.938C535.688 110.979 538.833 109.667 541.75 108V123.938C539 125.604 535.917 126.917 532.5 127.875C529.083 128.792 525.062 129.25 520.438 129.25ZM577.375 33V51.25C577.375 55.2083 577.271 58.625 577.062 61.5C576.896 64.375 576.708 66.6458 576.5 68.3125H577.562C579.771 64.7708 582.562 62.2292 585.938 60.6875C589.312 59.1458 593.104 58.375 597.312 58.375C604.646 58.375 610.583 60.3542 615.125 64.3125C619.708 68.2292 622 74.6042 622 83.4375V128H602V88.5C602 78.75 598.5 73.875 591.5 73.875C586.125 73.875 582.417 75.8125 580.375 79.6875C578.375 83.5208 577.375 89.0208 577.375 96.1875V128H557.375V33H577.375Z" fill="black"/>
<path d="M766 81.9375C766 92.1458 763.875 100.667 759.625 107.5C755.417 114.333 749.417 119.458 741.625 122.875C733.833 126.292 724.542 128 713.75 128H683.625V38.75H716.312C731.896 38.75 744.062 42.4375 752.812 49.8125C761.604 57.1875 766 67.8958 766 81.9375ZM745.312 82.5625C745.312 72.6458 742.771 65.3333 737.688 60.625C732.604 55.875 725.229 53.5 715.562 53.5H703.562V113.062H713.312C734.646 113.062 745.312 102.896 745.312 82.5625ZM811.938 58.3125C821.354 58.3125 828.771 61 834.188 66.375C839.646 71.7083 842.375 79.4167 842.375 89.5V98.75H800.188C800.396 103.667 801.854 107.562 804.562 110.438C807.312 113.312 811.271 114.75 816.438 114.75C820.604 114.75 824.396 114.333 827.812 113.5C831.229 112.667 834.75 111.417 838.375 109.75V124.375C835.167 126.042 831.708 127.271 828 128.062C824.292 128.854 819.688 129.25 814.188 129.25C807.604 129.25 801.708 128 796.5 125.5C791.333 122.958 787.271 119.104 784.312 113.938C781.354 108.771 779.875 102.208 779.875 94.25C779.875 82.2917 782.833 73.3125 788.75 67.3125C794.667 61.3125 802.396 58.3125 811.938 58.3125ZM812.562 72.125C809.229 72.125 806.5 73.2708 804.375 75.5625C802.25 77.8542 801 81.2917 800.625 85.875H823.875C823.833 81.9167 822.854 78.6458 820.938 76.0625C819.062 73.4375 816.271 72.125 812.562 72.125ZM896.938 128H876.375L848.625 59.5625H869.625L883.188 100C883.729 101.167 884.333 102.833 885 105C885.667 107.125 886.083 108.979 886.25 110.562H886.625C886.833 108.979 887.271 107.167 887.938 105.125C888.604 103.083 889.208 101.396 889.75 100.062L903.688 59.5625H924.562L896.938 128ZM991 107.625C991 114.167 988.229 119.417 982.688 123.375C977.188 127.292 968.979 129.25 958.062 129.25C952.396 129.25 947.438 128.938 943.188 128.312C938.938 127.688 934.896 126.667 931.062 125.25V109.125C935.104 110.917 939.562 112.292 944.438 113.25C949.312 114.208 953.729 114.688 957.688 114.688C962.688 114.688 966.312 114.208 968.562 113.25C970.854 112.25 972 110.854 972 109.062C972 107.812 971.458 106.729 970.375 105.812C969.333 104.854 967.479 103.854 964.812 102.812C962.146 101.729 958.354 100.396 953.438 98.8125C946.146 96.3958 940.562 93.7083 936.688 90.75C932.812 87.75 930.875 83.4375 930.875 77.8125C930.875 71.3958 933.771 66.5417 939.562 63.25C945.396 59.9583 953.021 58.3125 962.438 58.3125C967.521 58.3125 972.271 58.7917 976.688 59.75C981.146 60.6667 985.542 62 989.875 63.75L983.938 76.875C980.271 75.4167 976.5 74.25 972.625 73.375C968.75 72.5 965.208 72.0625 962 72.0625C958.125 72.0625 955.146 72.4792 953.062 73.3125C950.979 74.1042 949.938 75.2292 949.938 76.6875C949.938 77.8958 950.479 78.9375 951.562 79.8125C952.646 80.6458 954.542 81.5625 957.25 82.5625C959.958 83.5208 963.708 84.7917 968.5 86.375C975.833 88.7917 981.417 91.4792 985.25 94.4375C989.083 97.3958 991 101.792 991 107.625Z" fill="#2E8DF7"/>
<path d="M180.833 160.792V40.2917H20.1667V160.792H180.833ZM180.833 0.125C186.16 0.125 191.268 2.24092 195.034 6.00727C198.801 9.77363 200.917 14.8819 200.917 20.2083V160.792C200.917 166.118 198.801 171.226 195.034 174.993C191.268 178.759 186.16 180.875 180.833 180.875H20.1667C14.8403 180.875 9.732 178.759 5.96565 174.993C2.19929 171.226 0.083374 166.118 0.083374 160.792V20.2083C0.083374 14.8819 2.19929 9.77363 5.96565 6.00727C9.732 2.24092 14.8403 0.125 20.1667 0.125H180.833ZM110.542 140.708V120.625H160.75V140.708H110.542ZM76.1992 100.542L35.9321 60.375H64.35L97.4875 93.5125C101.404 97.4288 101.404 103.855 97.4875 107.772L64.5509 140.708H36.133L76.1992 100.542Z" fill="#2E8DF7"/>
</svg>
